<svg width="24" height="24" viewBox="0 0 24 24" fill="none" xmlns="http://www.w3.org/2000/svg">
<path d="M16 21V19C16 16.7909 14.2091 15 12 15H6C3.79086 15 2 16.7909 2 19V21" stroke="#1070B7" stroke-width="2" stroke-linecap="round" stroke-linejoin="round"/>
<path d="M16 3.12C17.7664 3.57712 19 5.1684 19 6.99C19 8.81159 17.7664 10.4029 16 10.86" stroke="#1070B7" stroke-width="2" stroke-linecap="round" stroke-linejoin="round"/>
<path d="M22 21V19C21.9986 17.1771 20.765 15.5857 19 15.13" stroke="#1070B7" stroke-width="2" stroke-linecap="round" stroke-linejoin="round"/>
<path d="M5 7C5 4.79086 6.79086 3 9 3C11.2091 3 13 4.79086 13 7C13 9.20914 11.2091 11 9 11C6.79086 11 5 9.20914 5 7Z" stroke="#1070B7" stroke-width="2" stroke-linecap="round" stroke-linejoin="round"/>
</svg>
